<?xml version="1.0" encoding="utf-8"?>
<!-- Generator: Adobe Illustrator 22.1.0, SVG Export Plug-In . SVG Version: 6.00 Build 0)  -->
<svg version="1.1" id="Layer_1" xmlns="http://www.w3.org/2000/svg" xmlns:xlink="http://www.w3.org/1999/xlink" x="0px" y="0px"
	 viewBox="0 0 512 512" style="enable-background:new 0 0 512 512;" xml:space="preserve">
<g>
	<path d="M256,101.3c-46.5,0-84.4,37.8-84.4,84.4c0,7.8,6.3,14.1,14.1,14.1s14.1-6.3,14.1-14.1c0-31,25.2-56.3,56.3-56.3
		c7.8,0,14.1-6.3,14.1-14.1S263.8,101.3,256,101.3z M185.7,434.6c0,2.8,0.8,5.5,2.4,7.8l21.5,32.4c2.6,3.9,7,6.3,11.7,6.3h69.3
		c4.7,0,9.1-2.4,11.7-6.3l21.5-32.4c1.5-2.3,2.3-5,2.4-7.8l0-38H185.7L185.7,434.6z M256,31c-89.9,0-154.7,72.9-154.7,154.7
		c0,39,14.5,74.6,38.3,101.8c14.6,16.7,37.6,51.7,46.1,81v0.1h42.2v-0.1c0-4.2-0.6-8.4-1.9-12.4c-4.9-15.7-20.1-56.9-54.6-96.4
		c-18.1-20.6-27.7-46.7-27.8-74C143.4,121,196,73.2,256,73.2c62,0,112.5,50.5,112.5,112.5c0,27.2-9.9,53.5-27.8,74
		c-34.4,39.2-49.6,80.4-54.6,96.2c-1.3,4.1-1.9,8.3-2,12.6v0.1h42.2v0c8.5-29.3,31.4-64.3,46.1-81c23.8-27.2,38.3-62.8,38.3-101.8
		C410.7,100.3,341.4,31,256,31z"/>
</g>
</svg>
