<svg id="Capa_1" enable-background="new 0 0 504.971 504.971" height="512" viewBox="0 0 504.971 504.971" width="512" xmlns="http://www.w3.org/2000/svg"><g><path d="m461.694 484.483-196.471-475.301c-3.722-10.249-21.25-14.079-27.45-.023l-194.516 475.372c-2.435 5.951-.756 12.793 4.157 16.942 2.744 2.317 6.145 3.498 9.567 3.498 2.705 0 5.421-.739 7.831-2.24l186.721-116.224 188.684 116.26c5.472 3.372 12.493 2.833 17.386-1.333 4.894-4.166 6.547-11.011 4.091-16.951zm-225.606-392.917-2.045 270.903-145.987 90.87zm27.63 267.623 2.046-271.083 151.048 365.414z"/></g></svg>