<?xml version="1.0" encoding="iso-8859-1"?>
<!-- Generator: Adobe Illustrator 19.0.0, SVG Export Plug-In . SVG Version: 6.00 Build 0)  -->
<svg version="1.1" id="Layer_1" xmlns="http://www.w3.org/2000/svg" xmlns:xlink="http://www.w3.org/1999/xlink" x="0px" y="0px"
	 viewBox="0 0 512 512" style="enable-background:new 0 0 512 512;" xml:space="preserve">
<g>
	<g>
		<polygon points="460.171,464.188 452.698,464.188 59.302,464.188 51.829,464.188 28.885,464.188 28.885,512 483.115,512 
			483.115,464.188 		"/>
	</g>
</g>
<g>
	<g>
		<rect x="82.115" y="101.573" width="347.77" height="42.487"/>
	</g>
</g>
<g>
	<g>
		<polygon points="352.64,0 347.829,30.627 335.526,30.627 337.129,0 264.324,0 262.72,30.627 249.279,30.627 247.676,0 174.87,0 
			176.473,30.627 164.17,30.627 159.36,0 85.25,0 96.426,71.154 415.574,71.154 426.749,0 		"/>
	</g>
</g>
<g>
	<g>
		<path d="M416.992,385.96h-32.552H127.56H95.008c-23.81,0-43.179,19.371-43.179,43.18v4.631h30.417h347.508h30.417v-4.631
			C460.171,405.331,440.801,385.96,416.992,385.96z"/>
	</g>
</g>
<g>
	<g>
		<path d="M403.485,337.367C391.836,282.432,386.7,222.102,384.5,174.476H127.503c-3.512,76.506-12.062,130.227-18.988,162.891
			c-1.414,6.668-2.813,12.712-4.162,18.176h303.295C406.297,350.078,404.899,344.035,403.485,337.367z"/>
	</g>
</g>
<g>
</g>
<g>
</g>
<g>
</g>
<g>
</g>
<g>
</g>
<g>
</g>
<g>
</g>
<g>
</g>
<g>
</g>
<g>
</g>
<g>
</g>
<g>
</g>
<g>
</g>
<g>
</g>
<g>
</g>
</svg>
