<svg width="26" height="24" viewBox="0 0 26 24" fill="none" xmlns="http://www.w3.org/2000/svg">
<path fill-rule="evenodd" clip-rule="evenodd" d="M26 24H20.2536V15.563C20.2536 13.3547 19.3548 11.8471 17.3782 11.8471C15.8663 11.8471 15.0255 12.8644 14.6342 13.8449C14.4874 14.1968 14.5103 14.6871 14.5103 15.1773V24H8.81751C8.81751 24 8.89088 9.05475 8.81751 7.69623H14.5103V10.255C14.8467 9.13621 16.6658 7.53948 19.5688 7.53948C23.1704 7.53948 26 9.88462 26 14.9345V24ZM3.06044 5.65692H3.02376C1.18933 5.65692 0 4.41057 0 2.83076C0 1.2202 1.22448 0 3.0956 0C4.96519 0 6.11477 1.21714 6.15146 2.82616C6.15146 4.40598 4.96519 5.65692 3.06044 5.65692ZM0.655792 7.69623H5.72342V24H0.655792V7.69623Z" fill="white"/>
</svg>
