<svg width="26" height="26" viewBox="0 0 26 26" fill="none" xmlns="http://www.w3.org/2000/svg">
<path fill-rule="evenodd" clip-rule="evenodd" d="M13 0C9.46942 0 9.02672 0.0149638 7.64013 0.0782299C6.25643 0.141341 5.3114 0.361118 4.4845 0.682505C3.62964 1.01468 2.90467 1.45919 2.18191 2.1819C1.4592 2.90466 1.01468 3.62964 0.682505 4.4845C0.361118 5.3114 0.141349 6.25642 0.0782382 7.64012C0.014972 9.0267 0 9.46941 0 13C0 16.5306 0.014972 16.9733 0.0782382 18.3599C0.141349 19.7436 0.361118 20.6886 0.682505 21.5155C1.01468 22.3704 1.4592 23.0953 2.18191 23.8181C2.90467 24.5408 3.62964 24.9853 4.4845 25.3175C5.3114 25.6389 6.25643 25.8587 7.64013 25.9218C9.02672 25.985 9.46942 26 13 26C16.5306 26 16.9733 25.985 18.3599 25.9218C19.7436 25.8587 20.6886 25.6389 21.5155 25.3175C22.3703 24.9853 23.0953 24.5408 23.8181 23.8181C24.5408 23.0953 24.9853 22.3704 25.3175 21.5155C25.6389 20.6886 25.8587 19.7436 25.9218 18.3599C25.985 16.9733 26 16.5306 26 13C26 9.46941 25.985 9.0267 25.9218 7.64012C25.8587 6.25642 25.6389 5.3114 25.3175 4.4845C24.9853 3.62964 24.5408 2.90466 23.8181 2.1819C23.0953 1.45919 22.3703 1.01468 21.5155 0.682505C20.6886 0.361118 19.7436 0.141341 18.3599 0.0782299C16.9733 0.0149638 16.5306 0 13 0ZM13 2.34233C16.4711 2.34233 16.8823 2.3556 18.2531 2.41814C19.5206 2.47594 20.209 2.68772 20.667 2.86575C21.2738 3.10158 21.7069 3.38329 22.1618 3.83822C22.6167 4.29311 22.8984 4.72617 23.1342 5.33297C23.3123 5.79106 23.524 6.4794 23.5818 7.74688C23.6444 9.11768 23.6576 9.52886 23.6576 13C23.6576 16.4711 23.6444 16.8823 23.5818 18.2531C23.524 19.5206 23.3123 20.2089 23.1342 20.667C22.8984 21.2738 22.6167 21.7069 22.1618 22.1618C21.7069 22.6167 21.2738 22.8984 20.667 23.1342C20.209 23.3123 19.5206 23.5241 18.2531 23.5819C16.8825 23.6444 16.4714 23.6577 13 23.6577C9.52861 23.6577 9.11753 23.6444 7.74688 23.5819C6.4794 23.5241 5.79106 23.3123 5.33297 23.1342C4.72617 22.8984 4.2931 22.6167 3.83822 22.1618C3.38333 21.7069 3.10158 21.2738 2.86575 20.667C2.68772 20.2089 2.47594 19.5206 2.41814 18.2531C2.3556 16.8823 2.34233 16.4711 2.34233 13C2.34233 9.52886 2.3556 9.11768 2.41814 7.74688C2.47594 6.4794 2.68772 5.79106 2.86575 5.33297C3.10158 4.72617 3.38328 4.29311 3.83822 3.83822C4.2931 3.38329 4.72617 3.10158 5.33297 2.86575C5.79106 2.68772 6.4794 2.47594 7.74688 2.41814C9.11768 2.3556 9.52887 2.34233 13 2.34233ZM13 6.32433C9.31311 6.32433 6.32433 9.3131 6.32433 13C6.32433 16.6869 9.31311 19.6757 13 19.6757C16.6869 19.6757 19.6757 16.6869 19.6757 13C19.6757 9.3131 16.6869 6.32433 13 6.32433ZM13 17.3333C10.6068 17.3333 8.66667 15.3932 8.66667 13C8.66667 10.6068 10.6068 8.66667 13 8.66667C15.3933 8.66667 17.3333 10.6068 17.3333 13C17.3333 15.3932 15.3933 17.3333 13 17.3333ZM21.4994 6.06058C21.4994 6.92216 20.801 7.62056 19.9394 7.62056C19.0779 7.62056 18.3794 6.92216 18.3794 6.06058C18.3794 5.19901 19.0779 4.50055 19.9394 4.50055C20.801 4.50055 21.4994 5.19901 21.4994 6.06058Z" fill="white"/>
</svg>
