<svg width="29" height="24" viewBox="0 0 29 24" fill="none" xmlns="http://www.w3.org/2000/svg">
<path fill-rule="evenodd" clip-rule="evenodd" d="M29 2.84117C27.9344 3.32308 26.7872 3.64897 25.5837 3.79459C26.8127 3.04572 27.7557 1.85829 28.2 0.443774C27.0493 1.13717 25.7778 1.6416 24.4194 1.91202C23.3369 0.734993 21.7896 0 20.0772 0C16.7937 0 14.1298 2.71289 14.1298 6.0585C14.1298 6.53348 14.1808 6.99459 14.283 7.43836C9.33814 7.18527 4.95504 4.77573 2.01878 1.10596C1.50643 2.0039 1.21364 3.04572 1.21364 4.15515C1.21364 6.25612 2.2639 8.11095 3.86054 9.19784C2.8869 9.16837 1.96771 8.89275 1.16429 8.44204V8.51657C1.16429 11.4531 3.21541 13.9025 5.9389 14.4572C5.44016 14.5993 4.91419 14.6704 4.37119 14.6704C3.9882 14.6704 3.61372 14.634 3.25116 14.5629C4.00863 16.969 6.20443 18.7216 8.80876 18.7684C6.77296 20.3944 4.20608 21.3634 1.41961 21.3634C0.939597 21.3634 0.464694 21.3356 0 21.2802C2.63327 22.9963 5.76187 24 9.12027 24C20.0653 24 26.0484 14.7692 26.0484 6.7623C26.0484 6.49881 26.0433 6.23532 26.0331 5.97703C27.1957 5.12243 28.2051 4.05634 29 2.84117Z" fill="white"/>
</svg>
