<svg width="41" height="31" viewBox="0 0 41 31" fill="none" xmlns="http://www.w3.org/2000/svg">
<g filter="url(#filter0_d)">
<path fill-rule="evenodd" clip-rule="evenodd" d="M17.0928 15.7414L17.0917 6.55347L26.0079 11.1633L17.0928 15.7414ZM36.67 4.96135C36.67 4.96135 36.3472 2.70805 35.3582 1.71578C34.1032 0.412857 32.6966 0.406713 32.0521 0.331092C27.4341 -4.79817e-06 20.5072 0 20.5072 0H20.4928C20.4928 0 13.5659 -4.79817e-06 8.94794 0.331092C8.30238 0.406713 6.89678 0.412857 5.64072 1.71578C4.65175 2.70805 4.33 4.96135 4.33 4.96135C4.33 4.96135 4 7.60808 4 10.2538V12.735C4 15.3817 4.33 18.0274 4.33 18.0274C4.33 18.0274 4.65175 20.2807 5.64072 21.273C6.89678 22.5759 8.54574 22.535 9.27999 22.671C11.92 22.9223 20.5 23 20.5 23C20.5 23 27.4341 22.9898 32.0521 22.6587C32.6966 22.582 34.1032 22.5759 35.3582 21.273C36.3472 20.2807 36.67 18.0274 36.67 18.0274C36.67 18.0274 37 15.3817 37 12.735V10.2538C37 7.60808 36.67 4.96135 36.67 4.96135Z" fill="white"/>
</g>
<defs>
<filter id="filter0_d" x="0" y="0" width="41" height="31" filterUnits="userSpaceOnUse" color-interpolation-filters="sRGB">
<feFlood flood-opacity="0" result="BackgroundImageFix"/>
<feColorMatrix in="SourceAlpha" type="matrix" values="0 0 0 0 0 0 0 0 0 0 0 0 0 0 0 0 0 0 127 0"/>
<feOffset dy="4"/>
<feGaussianBlur stdDeviation="2"/>
<feColorMatrix type="matrix" values="0 0 0 0 0 0 0 0 0 0 0 0 0 0 0 0 0 0 0.25 0"/>
<feBlend mode="normal" in2="BackgroundImageFix" result="effect1_dropShadow"/>
<feBlend mode="normal" in="SourceGraphic" in2="effect1_dropShadow" result="shape"/>
</filter>
</defs>
</svg>
