<?xml version="1.0" standalone="no"?>
<!DOCTYPE svg PUBLIC "-//W3C//DTD SVG 20010904//EN"
 "http://www.w3.org/TR/2001/REC-SVG-20010904/DTD/svg10.dtd">
<svg version="1.0" xmlns="http://www.w3.org/2000/svg"
 width="90.000000pt" height="90.000000pt" viewBox="0 0 90.000000 90.000000"
 preserveAspectRatio="xMidYMid meet">
<metadata>
Created by potrace 1.14, written by Peter Selinger 2001-2017
</metadata>
<g transform="translate(0.000000,90.000000) scale(0.100000,-0.100000)"
fill="#000000" stroke="none">
<path d="M458 814 c-2 -1 -75 -6 -163 -10 -88 -4 -176 -8 -195 -9 -19 -2 -50
-3 -67 -4 l-33 -1 0 -345 c0 -190 3 -345 8 -346 7 -1 99 -5 322 -14 58 -2 141
-6 186 -10 54 -4 109 -1 170 10 49 9 117 21 152 27 l62 11 0 322 0 323 -42 6
c-24 4 -59 9 -78 12 -19 3 -53 10 -75 16 -35 10 -240 20 -247 12z"/>
</g>
</svg>
